

Release info:

General
Format                                   : Matroska
Format version                           : Version 2
File size                                : 690 MiB
Duration                                 : 1h 58mn
Overall bit rate                         : 814 Kbps
Movie name                               : Rajdhani Express

Video
ID                                       : 1
Format                                   : MPEG-4 Visual
Format profile                           : Advanced Simple@L5
Format settings, BVOP                    : Yes
Format settings, QPel                    : No
Format settings, GMC                     : No warppoints
Format settings, Matrix                  : Default (H.263)
Codec ID                                 : V_MS/VFW/FOURCC / XVID
Codec ID/Hint                            : XviD
Duration                                 : 1h 58mn
Bit rate                                 : 718 Kbps
Width                                    : 640 pixels
Height                                   : 272 pixels
Display aspect ratio                     : 2.35:1
Frame rate mode                          : Constant
Frame rate                               : 23.976 fps
Color space                              : YUV
Chroma subsampling                       : 4:2:0
Bit depth                                : 8 bits
Scan type                                : Progressive
Compression mode                         : Lossy
Bits/(Pixel*Frame)                       : 0.172
Stream size                              : 609 MiB (88%)
Title                                    : Rajdhani Express
Language                                 : Hindi
Default                                  : Yes
Forced                                   : No

Audio
ID                                       : 2
Format                                   : MPEG Audio
Format version                           : Version 1
Format profile                           : Layer 3
Mode                                     : Joint stereo
Mode extension                           : MS Stereo
Muxing mode                              : Header stripping
Codec ID                                 : A_MPEG/L3
Codec ID/Hint                            : MP3
Duration                                 : 1h 58mn
Bit rate mode                            : Constant
Bit rate                                 : 80.0 Kbps
Channel(s)                               : 2 channels
Sampling rate                            : 32.0 KHz
Compression mode                         : Lossy
Stream size                              : 67.8 MiB (10%)
Title                                    : Rajdhani Express
Writing library                          : LAME3.99r
Language                                 : Hindi
Default                                  : Yes
Forced                                   : No



Source:
credit to original movie ripper  (Thanks)

IMDB Info:

Director: Ashok Kohli
Writers: Ashok Kohli (dialogue), Ashok Kohli (screenplay),
Stars: Ishrat Ali, Sayali Bhagat and Puja Bose

Genres: Action | Drama | Thriller
 
http://www.imdb.com/title/tt2560016/

Screen Shot:
 
http://www.shotpix.com/images/36757002886145015134.png 
http://www.shotpix.com/images/12468864620665346315.png 
http://www.shotpix.com/images/79576592026326148379.png 
http://www.shotpix.com/images/64733082716692806001.png 
http://www.shotpix.com/images/31828496852977142024.png 
http://www.shotpix.com/images/68881868555863083016.png